<svg xmlns="http://www.w3.org/2000/svg" width="440" height="290" viewBox="0 0 440 290" font-family="Roboto, Segoe UI, Arial, sans-serif">
  <rect width="440" height="290" rx="14" fill="#fafafa"/>
  <rect x="0.5" y="0.5" width="439" height="289" rx="14" fill="none" stroke="#e0e0e0"/>

  <!-- header -->
  <circle cx="28" cy="34" r="9" fill="#44739e"/>
  <text x="46" y="39" font-size="17" font-weight="500" fill="#212121">Pollenflug – Inseln und Marschen</text>

  <!-- rows -->
  <!-- row template: icon dot, name, bar, desc, 3 chips -->
  <g transform="translate(20,64)">
    <!-- Gräser -->
    <circle cx="8" cy="10" r="8" fill="#4caf50"/>
    <text x="26" y="9" font-size="13" fill="#212121">Gräser</text>
    <rect x="26" y="15" width="210" height="8" rx="4" fill="#e0e0e0"/>
    <rect x="26" y="15" width="178" height="8" rx="4" fill="#ff9800"/>
    <text x="26" y="36" font-size="10.5" fill="#727272">mittlere bis hohe Belastung</text>
    <g transform="translate(258,0)">
      <rect x="0" y="0" width="48" height="34" rx="8" fill="#eceff1"/>
      <text x="24" y="12" font-size="7.5" fill="#727272" text-anchor="middle">HEUTE</text>
      <circle cx="13" cy="25" r="4.5" fill="#ff9800"/><text x="22" y="28" font-size="11" font-weight="600" fill="#212121">2–3</text>
      <rect x="55" y="0" width="48" height="34" rx="8" fill="#eceff1"/>
      <text x="79" y="12" font-size="7.5" fill="#727272" text-anchor="middle">MORGEN</text>
      <circle cx="68" cy="25" r="4.5" fill="#ff9800"/><text x="77" y="28" font-size="11" font-weight="600" fill="#212121">2–3</text>
      <rect x="110" y="0" width="48" height="34" rx="8" fill="#eceff1"/>
      <text x="134" y="12" font-size="7.5" fill="#727272" text-anchor="middle">ÜBERM.</text>
      <circle cx="123" cy="25" r="4.5" fill="#fbc02d"/><text x="132" y="28" font-size="11" font-weight="600" fill="#212121">1–2</text>
    </g>
  </g>

  <g transform="translate(20,124)">
    <!-- Birke -->
    <circle cx="8" cy="10" r="8" fill="#4caf50"/>
    <text x="26" y="9" font-size="13" fill="#212121">Birke</text>
    <rect x="26" y="15" width="210" height="8" rx="4" fill="#e0e0e0"/>
    <rect x="26" y="15" width="3" height="8" rx="4" fill="#4caf50"/>
    <text x="26" y="36" font-size="10.5" fill="#727272">keine Belastung</text>
    <g transform="translate(258,0)">
      <rect x="0" y="0" width="48" height="34" rx="8" fill="#eceff1"/>
      <text x="24" y="12" font-size="7.5" fill="#727272" text-anchor="middle">HEUTE</text>
      <circle cx="13" cy="25" r="4.5" fill="#4caf50"/><text x="22" y="28" font-size="11" font-weight="600" fill="#212121">0</text>
      <rect x="55" y="0" width="48" height="34" rx="8" fill="#eceff1"/>
      <text x="79" y="12" font-size="7.5" fill="#727272" text-anchor="middle">MORGEN</text>
      <circle cx="68" cy="25" r="4.5" fill="#4caf50"/><text x="77" y="28" font-size="11" font-weight="600" fill="#212121">0</text>
      <rect x="110" y="0" width="48" height="34" rx="8" fill="#eceff1"/>
      <text x="134" y="12" font-size="7.5" fill="#727272" text-anchor="middle">ÜBERM.</text>
      <circle cx="123" cy="25" r="4.5" fill="#4caf50"/><text x="132" y="28" font-size="11" font-weight="600" fill="#212121">0</text>
    </g>
  </g>

  <g transform="translate(20,184)">
    <!-- Roggen -->
    <circle cx="8" cy="10" r="8" fill="#8bc34a"/>
    <text x="26" y="9" font-size="13" fill="#212121">Roggen</text>
    <rect x="26" y="15" width="210" height="8" rx="4" fill="#e0e0e0"/>
    <rect x="26" y="15" width="70" height="8" rx="4" fill="#8bc34a"/>
    <text x="26" y="36" font-size="10.5" fill="#727272">geringe Belastung</text>
    <g transform="translate(258,0)">
      <rect x="0" y="0" width="48" height="34" rx="8" fill="#eceff1"/>
      <text x="24" y="12" font-size="7.5" fill="#727272" text-anchor="middle">HEUTE</text>
      <circle cx="13" cy="25" r="4.5" fill="#8bc34a"/><text x="22" y="28" font-size="11" font-weight="600" fill="#212121">1</text>
      <rect x="55" y="0" width="48" height="34" rx="8" fill="#eceff1"/>
      <text x="79" y="12" font-size="7.5" fill="#727272" text-anchor="middle">MORGEN</text>
      <circle cx="68" cy="25" r="4.5" fill="#fbc02d"/><text x="77" y="28" font-size="11" font-weight="600" fill="#212121">1–2</text>
      <rect x="110" y="0" width="48" height="34" rx="8" fill="#eceff1"/>
      <text x="134" y="12" font-size="7.5" fill="#727272" text-anchor="middle">ÜBERM.</text>
      <circle cx="123" cy="25" r="4.5" fill="#fbc02d"/><text x="132" y="28" font-size="11" font-weight="600" fill="#212121">1–2</text>
    </g>
  </g>

  <text x="20" y="270" font-size="10" fill="#9e9e9e">Stand: 28. Juni 2026, 11:00 · Daten: Deutscher Wetterdienst</text>
</svg>
